<svg width="40" height="40" viewBox="0 0 40 40" fill="none" xmlns="http://www.w3.org/2000/svg">
<path d="M13.19 14.3799C13 14.3799 12.8 14.2999 12.66 14.1599C12.37 13.8699 12.37 13.3899 12.66 13.0999L16.29 9.46994C16.58 9.17994 17.06 9.17994 17.35 9.46994C17.64 9.75994 17.64 10.2399 17.35 10.5299L13.72 14.1599C13.57 14.2999 13.38 14.3799 13.19 14.3799Z" fill="#0C0C0C"/>
<path d="M26.81 14.3799C26.62 14.3799 26.43 14.3099 26.28 14.1599L22.65 10.5299C22.36 10.2399 22.36 9.75994 22.65 9.46994C22.94 9.17994 23.42 9.17994 23.71 9.46994L27.34 13.0999C27.63 13.3899 27.63 13.8699 27.34 14.1599C27.2 14.2999 27 14.3799 26.81 14.3799Z" fill="#0C0C0C"/>
<path d="M28.21 18.6C28.14 18.6 28.07 18.6 28 18.6H27.77H12C11.3 18.61 10.5 18.61 9.92 18.03C9.46 17.58 9.25 16.88 9.25 15.85C9.25 13.1 11.26 13.1 12.22 13.1H27.78C28.74 13.1 30.75 13.1 30.75 15.85C30.75 16.89 30.54 17.58 30.08 18.03C29.56 18.55 28.86 18.6 28.21 18.6ZM12.22 17.1H28.01C28.46 17.11 28.88 17.11 29.02 16.97C29.09 16.9 29.24 16.66 29.24 15.85C29.24 14.72 28.96 14.6 27.77 14.6H12.22C11.03 14.6 10.75 14.72 10.75 15.85C10.75 16.66 10.91 16.9 10.97 16.97C11.11 17.1 11.54 17.1 11.98 17.1H12.22Z" fill="#0C0C0C"/>
<path d="M17.76 26.3C17.35 26.3 17.01 25.96 17.01 25.55V22C17.01 21.59 17.35 21.25 17.76 21.25C18.17 21.25 18.51 21.59 18.51 22V25.55C18.51 25.97 18.17 26.3 17.76 26.3Z" fill="#0C0C0C"/>
<path d="M22.36 26.3C21.95 26.3 21.61 25.96 21.61 25.55V22C21.61 21.59 21.95 21.25 22.36 21.25C22.77 21.25 23.11 21.59 23.11 22V25.55C23.11 25.97 22.77 26.3 22.36 26.3Z" fill="#0C0C0C"/>
<path d="M22.89 30.75H16.86C13.28 30.75 12.48 28.62 12.17 26.77L10.76 18.12C10.69 17.71 10.97 17.33 11.38 17.26C11.79 17.19 12.17 17.47 12.24 17.88L13.65 26.52C13.94 28.29 14.54 29.25 16.86 29.25H22.89C25.46 29.25 25.75 28.35 26.08 26.61L27.76 17.86C27.84 17.45 28.23 17.18 28.64 17.27C29.05 17.35 29.31 17.74 29.23 18.15L27.55 26.9C27.16 28.93 26.51 30.75 22.89 30.75Z" fill="#0C0C0C"/>
</svg>
